<?xml version="1.0" encoding="UTF-8" standalone="no"?>
<svg
   version="1.1"
   id="svg1"
   width="800.71997"
   height="808.58667"
   viewBox="0 0 800.71997 808.58667"
   xmlns="http://www.w3.org/2000/svg"
   xmlns:svg="http://www.w3.org/2000/svg">
  <defs
     id="defs1" />
  <g
     id="g1">
    <g
       id="group-R5">
      <path
         id="path2"
         d="m 1363.52,937.91 c 69.96,1.75 130,68.07 130,120 0,64.17 -98.31,132.29 -150,180 -192.01,177.2 -317.34,370.1 -470,550 -6.122,5.21 -18.247,0.11 -24.559,-7.29 -7.414,-8.69 -11.996,-13.38 -15.441,-22.71 -83.454,-226.26 33.984,-374.63 200,-550 97.97,-103.49 216.6,-272.859 330,-270"
         style="fill:#231f20;fill-opacity:1;fill-rule:nonzero;stroke:none"
         transform="matrix(0.13333333,0,0,-0.13333333,0,808.58667)" />
      <path
         id="path3"
         d="m 4583.52,1097.91 c 3.17,-38.92 63.71,-101.59 130,-100 72.05,1.711 192.55,129.78 260,200 150.08,156.23 334.51,349.87 180,560 -2.21,7.79 -8.38,11.62 -20,10 -93.38,-106.11 -139.45,-222.65 -270,-360 -67.7,-71.24 -287.87,-213.6 -280,-310"
         style="fill:#231f20;fill-opacity:1;fill-rule:nonzero;stroke:none"
         transform="matrix(0.13333333,0,0,-0.13333333,0,808.58667)" />
      <path
         id="path4"
         d="m 5123.52,1237.91 c -116.57,-130.27 -232.69,-237.5 -320,-340 92.8,-223.449 234.28,-60.941 340,50 187.85,197.11 407.1,409.07 480,640 -223.93,27.54 -360.59,-194.21 -500,-350"
         style="fill:#231f20;fill-opacity:1;fill-rule:nonzero;stroke:none"
         transform="matrix(0.13333333,0,0,-0.13333333,0,808.58667)" />
      <path
         id="path5"
         d="m 1113.52,1007.91 c -227.247,204.45 -345.446,547.51 -650,560 -14.461,0.59 -21.223,-5.32 -30,-20 -26.797,-60.33 68.75,-176.6 120,-250 110.91,-158.88 229.914,-291.82 360,-420 50.429,-49.699 148.7,-164.949 220,-170 91.53,-6.5 143.22,73.61 140,130 -4.22,73.719 -118.53,132.692 -160,170"
         style="fill:#231f20;fill-opacity:1;fill-rule:nonzero;stroke:none"
         transform="matrix(0.13333333,0,0,-0.13333333,0,808.58667)" />
      <path
         id="path6"
         d="m 4476.4,557.359 c -9.51,-6.89 -24.52,-16.449 -38.37,-29.968 -18.14,-17.129 -66.88,-50.641 -101.14,-67.27 -41.6,-20.199 -79.16,-33.152 -130.91,-37.121 -85.54,-6 -167.45,38.129 -210.23,126.219 -37.14,76.472 -35.56,160.39 17.95,237.031 30.6,42.84 75.4,76.68 127.39,101.941 67.9,32.981 108.68,34.637 128.25,44.137 10.75,-17.457 32.16,-59.976 56.4,-94.328 0.82,-7.918 -15.4,-16.551 -22.66,-12.508 -47.5,47.988 -100,58.028 -156.88,30.399 -97.27,-47.243 -105.16,-150.871 -58.22,-247.52 42.48,-87.473 97.71,-124.91 150.54,-132.519 38.88,-5.313 72.47,6.468 95.1,17.457 34.87,16.941 38.94,27.23 19.63,66.992 l -18.71,38.539 c -16.05,33.031 -21.5,34.922 -52.94,24.941 l -28.7,-9.402 c -8.51,0.402 -15.35,14.473 -10.4,21.402 44.03,19.86 74.3,33.809 104.27,48.367 29.37,14.25 59.05,29.43 79.25,40.774 6.67,-1.293 13.51,-15.363 10.39,-21.41 l -12.88,-9.293 c -16.86,-11.957 -17.56,-19.86 -1.52,-52.899 l 16.64,-34.25 c 12.48,-25.699 19.64,-37.34 32.45,-34.14 3.64,-1.258 8.07,-11.961 5.3,-15.571 z M 3898.16,279.488 c -0.66,-0.179 -31.04,27.821 -71.82,58.043 l -200.61,149.188 c -50.24,36.941 -79.09,59 -93.49,65.82 -1.59,-7.43 1.29,-18.617 7.56,-42.988 l 32.89,-127.762 c 13.73,-53.348 29.08,-102.059 40.9,-117.98 9.49,-12.297 25.82,-13.008 43.62,-11.239 l 19.12,2.11 c 6.62,-3.91 8.87,-18.078 5.93,-23.039 -35.9,-7.852 -62.41,-13.969 -88.76,-20.75 -24.36,-6.27 -48.56,-13.2 -73.24,-20.961 -4.97,2.941 -9.85,16.422 -5.94,23.05 l 10.68,4.86 c 16.94,7.871 28.93,15.871 30.64,31.051 2.67,19.648 -8.08,69.55 -21.81,122.89 l -43.05,167.278 c -9.33,36.23 -12.7,46.589 -19.03,54.793 -8.15,9.847 -19.4,15.367 -43.3,12.738 l -19.12,-2.121 c -5.97,4.082 -9.37,20.062 -3.3,23.73 31.3,6.653 64.39,14.461 91.4,21.41 22.39,5.77 41.32,11.34 54.8,16.231 14.22,-27.942 69.91,-66.981 147.33,-122.192 l 72.1,-50.957 c 37.79,-26.793 62.82,-44.921 81.86,-56.16 0.95,7.25 -1.93,18.457 -4.99,30.309 l -23.4,90.879 c -13.73,53.34 -29.07,102.062 -40.9,117.98 -9.48,12.301 -25.16,13.18 -43.62,11.242 L 3722.15,685 c -6.62,3.91 -8.86,18.07 -5.93,23.039 35.9,7.84 61.75,13.793 88.76,20.742 24.36,6.27 47.91,13.039 73.25,20.969 4.97,-2.941 9.84,-16.418 5.94,-23.059 l -11.35,-5.019 c -16.45,-7.051 -27.61,-15.531 -29.97,-30.883 -2.67,-19.648 7.41,-69.719 21.14,-123.07 l 40.52,-157.391 c 11.02,-42.816 21.7,-84.297 28.61,-105.699 -2.58,-9.09 -19.15,-21.078 -34.96,-25.141 z M 3397.7,179.672 c -36.69,-2.043 -69.92,-4.442 -101.75,-7.402 -32.5,-3.02 -66.29,-6.84 -102.72,-11.579 -5.79,3.551 -7.24,19.129 -2.2,23.688 l 18.64,5.152 c 30.65,8.309 34.27,13.418 28.36,77.071 L 3214.9,515.75 c -5.92,63.629 -10.42,68 -42.06,70.52 l -19.28,1.628 c -5.79,3.551 -7.24,19.133 -2.2,23.723 36.69,2.039 70.61,4.508 103.1,7.527 31.82,2.942 65.61,6.762 102.05,11.493 5.79,-3.551 7.24,-19.129 2.2,-23.692 l -18.65,-5.148 c -30.64,-8.309 -34.26,-13.43 -28.36,-77.071 l 23.14,-249.148 c 5.92,-63.633 10.42,-68 42.06,-70.531 l 19.28,-1.621 c 5.79,-3.559 6.56,-19.2 1.52,-23.758 z m -296.34,550.59 c -2.13,0.527 -2.61,5.968 -0.79,7.32 l 8.58,1.059 c 10.24,1.347 11.39,3.5 10.56,20.289 l -3.4,68.601 c -0.68,13.848 -1.68,16.957 -10.96,17.758 l -9.72,0.781 c -1.94,0.961 -2.4,5.989 -0.78,7.321 8.53,1.691 18.28,4.488 26.56,7.211 9.1,3.179 16.88,7.558 18.34,7.636 1.06,0.051 2.55,-0.508 3.06,-2.168 -0.19,-4.84 0.09,-14.5 0.6,-24.992 l 4,-80.777 c 0.83,-16.789 2.18,-18.821 12.51,-19.153 l 8.63,-0.207 c 1.95,-1.16 2.01,-6.632 -0.05,-7.363 -7.58,0.051 -20.17,-0.359 -33.18,-1.008 -13.85,-0.679 -26.43,-1.519 -33.96,-2.308 z M 3071.72,152.77 c -35.94,2.921 -101.13,6.421 -156.83,8.839 l -91.03,3.942 c -31.25,1.359 -65.24,2.148 -107.42,2.621 -5.94,4.328 -6.62,20.019 -1.01,23.867 l 25.96,2.27 c 30.74,2.761 35.06,8.011 37.79,71.183 l 10.96,252.707 c 2.75,63.18 -1.07,69.473 -31.46,74.871 l -19.58,3.578 c -6.62,4.364 -5.94,19.993 2.39,23.75 35.26,-2.898 69.2,-5.039 101.81,-6.457 32.6,-1.421 66.6,-2.211 100.62,-2.351 5.26,-4.32 4.58,-19.942 -1.02,-23.781 l -17.79,-1.957 c -30.77,-3.422 -35.09,-8.68 -37.82,-71.864 L 2876.98,276.23 c -1.39,-31.929 0.39,-53.781 8.75,-65.031 8.33,-11.937 20.32,-17.898 69.91,-20.051 61.83,-2.679 80.93,-1.468 124.42,75.594 5.74,6.567 21.24,3.168 25.65,-5.191 -4.93,-35.18 -23.68,-90.852 -33.99,-108.781 z m -410.33,599.32 c -19.12,2.801 -30.18,9.941 -34.18,13.062 -3.28,5.149 -3.8,20.508 -1.73,34.637 1.85,2.492 6.66,2 7.99,-0.527 2.18,-14.121 13.31,-35.274 30.98,-37.852 15.38,-2.238 23.99,7.32 25.51,17.719 2.46,16.82 -11.88,29.109 -23.44,37.16 -13.87,9.672 -28.47,24.551 -25.46,45.113 3.22,23.52 23.89,37.059 54.01,32.657 6.87,-1.008 15.27,-3.079 23.22,-6.789 2.57,-1.231 4.38,-1.911 6.81,-2.688 1,-4.82 1.44,-16.344 -0.59,-30.273 -1.41,-2.34 -6.63,-1.797 -8.2,0.562 -1.99,11.109 -8.71,27.598 -23.67,29.77 -13.72,2.019 -22.5,-5.832 -24.02,-16.231 -1.4,-9.551 5.85,-19.531 15.45,-26.449 l 12.65,-9.281 c 11.89,-8.739 26.55,-23.192 23.21,-46.051 -3.74,-25.559 -27.16,-39.129 -58.54,-34.539 z m 15.36,-143.449 -19.34,0.078 c -31.75,0.269 -36.62,-3.688 -48.11,-66.571 L 2564.32,295.98 c -11.48,-62.878 -8.33,-68.289 21.47,-79.269 l 18.11,-6.762 c 4.62,-4.988 1.14,-20.258 -4.94,-23.289 -35.88,7.93 -68.54,14.59 -99.97,20.34 -32.11,5.871 -65.68,11.309 -102.05,16.57 -4.62,4.989 -1.81,20.379 4.28,23.41 l 19.33,-0.07 c 31.76,-0.269 36.62,3.672 48.12,66.551 l 44.97,246.168 c 11.49,62.883 8.34,68.301 -21.47,79.281 l -18.1,6.762 c -4.63,5 -1.82,20.379 4.27,23.457 35.88,-7.938 69.2,-14.731 101.31,-20.59 31.44,-5.75 65.01,-11.187 101.38,-16.48 4.62,-4.989 1.81,-20.387 -4.28,-23.418 z M 2351.18,587.41 c 0.39,24.942 -2.21,47.301 -7.6,59.121 -8.19,16.328 -24.98,30.5 -56.6,40.989 l -51.62,17.14 c -21.3,7.07 -21.72,5.781 -29.65,-18.09 l -37.5,-112.929 c -6,-18.071 -5.78,-19.571 11.64,-25.352 l 44.53,-14.789 c 33.55,-11.141 42.79,-9.191 59.53,19.641 l 8.59,15.058 c 6.23,3.66 22.36,-1.687 23.66,-8.57 -8.15,-20.219 -16.51,-43.227 -24.64,-67.75 -8.15,-24.527 -15.21,-47.969 -20.77,-69.051 -5.16,-4.738 -21.51,-0.027 -24.1,7.281 l 2.12,17.2 c 3.84,33.113 -2.18,40.851 -35.74,51.992 l -44.53,14.789 c -17.42,5.781 -18.28,5.351 -24.71,-14.02 l -25.49,-76.781 c -9.86,-29.68 -14.13,-51.199 -10.03,-64.73 4.53,-14.399 15.07,-23.629 62.18,-39.278 56.15,-18.633 78.73,-23.98 138.42,37.149 7.52,5.39 22.8,-2.551 22.81,-11.149 -13.72,-32.699 -46.56,-79.832 -61.38,-94.25 -33.77,12.649 -95.5,33.86 -148.42,51.43 l -83.89,27.848 c -30.97,10.281 -62.81,20.132 -111.63,34.91 -3.87,5.59 1.26,21.07 7.5,22.59 l 31.83,-5.559 c 30.54,-5.129 35.69,-2.539 55.41,56.828 l 79.9,240.703 c 19.49,58.719 16.92,63.879 -10.19,79.328 l -15.07,8.571 c -4.52,5.8 1.05,20.429 8.79,22.16 29.9,-11.36 61.3,-22.5 92.27,-32.781 l 136.81,-45.418 c 41.3,-13.719 78.29,-25.282 87.12,-26.77 -2.8,-10.539 -13.69,-58.5 -24.83,-102.801 -4.94,-6.238 -20.2,-2.609 -24.72,5.34 z m -447.62,267.93 c -39.86,20.64 -75.04,5.941 -90.68,-24.25 -14.4,-27.77 -2.78,-65.961 19.28,-97.301 l 28.9,-41.769 c 27.11,-39.321 56.68,-99.059 22.27,-165.469 -38.48,-74.27 -124.49,-90.981 -215.66,-43.742 -55.56,28.781 -81.84,62.3 -90.76,76.113 -4.59,19.226 10.09,66.769 31.36,107.828 8.29,5.66 22.49,-0.93 23.88,-10.078 -8.26,-45.5 3.42,-122.012 54.74,-148.59 44.68,-23.152 81.16,-3 96.81,27.199 25.33,48.899 -5.55,101.66 -32.39,138.539 -32.2,44.262 -61.14,105.2 -30.17,164.969 34.74,68.551 112.27,88.109 199.82,42.762 19.92,-10.321 43.43,-25.571 63.83,-45.321 6.6,-6.488 11.41,-10.511 18.03,-15.468 -2.05,-15.782 -12.91,-51.52 -33.87,-91.981 -6.78,-5.672 -22.18,1.547 -24.48,10.391 5.69,36.117 2.56,93.648 -40.91,116.168 z m -75.33,598.98 c 101.29,50.99 268.59,113.35 490.51,120.91 181.54,6.27 369.18,-25.97 556.49,-95.49 66.79,-24.78 127.92,-52.72 187.28,-85.49 -81.63,-11.26 -163.98,-32.18 -246.15,-62.68 -75.04,-27.84 -143.52,-62.3 -209.34,-105.33 l -4.39,-3.32 c -52.02,-45.3 -61.27,-82.41 -57.93,-115.83 -41.36,17.55 -81.36,46.37 -116.27,84.71 l -30.32,33.32 -29.49,-34.06 c -59.55,-68.77 -132.17,-106.64 -204.46,-106.64 -77.16,0 -146.54,41.99 -190.32,115.22 l -47.69,79.77 -25.15,-89.47 c -29.98,-106.65 -87.89,-144.51 -128.39,-144.51 -30.94,0 -58.19,20.19 -74.98,55.47 -31.4,92.76 -55.05,260 130.6,353.42 z m 456.83,1693.48 c 19.25,-83.84 35.44,-171.83 49.69,-262.12 -13.55,-16.13 -26.89,-32.28 -40.05,-48.42 -2.98,104.26 -5.93,208.15 -9.64,310.54 z M 3743.58,1619.17 c -39.96,7.3 -79.99,14.72 -119.76,22.21 4.71,21.5 9.9,41.96 13.26,59.61 l 112.99,-12.88 c -1.56,-23.34 -3.54,-46.44 -6.49,-68.94 z M 3202.9,1324.05 c 10.53,0 20.93,-0.19 31.2,-0.54 155.14,-5.28 272.02,-48.84 342.75,-84.44 123.24,-62.01 107.89,-173.37 86.97,-235.64 -9.9,-20.399 -25.24,-32.051 -42.32,-32.051 -24.62,0 -60.29,24.601 -79.77,93.901 l -25.13,89.47 -47.7,-79.76 c -28.88,-48.29 -74.38,-75.978 -124.86,-75.978 -47.8,0 -96.12,25.408 -136.09,71.538 l -29.48,34.06 -30.33,-33.32 c -40.6,-44.59 -91.06,-70.16 -138.45,-70.16 -57.73,0 -99.2,37.28 -116.77,104.98 l -17.07,65.69 -49.2,-46.74 c -67.2,-63.81 -108.96,-77.21 -132.15,-77.21 -23.62,0 -42.42,13.12 -65.85,46.41 -0.3,1.14 -0.59,2.28 -0.88,3.41 -5.88,22.54 -8.62,33.06 25.37,63.14 60.82,39.53 121.61,69.99 191.05,95.76 120.65,44.77 241.33,67.48 358.71,67.48 z m 493.34,2612.6 C 3462.94,3421.68 3120.01,2564.44 3048.91,1840.27 l -1165.05,142.78 c 304.54,783.92 1108.95,1505.25 1812.38,1953.6 z m 804.59,-1825.77 c -19.87,-160.98 -37.4,-302.98 -43.5,-412.8 L 3208.69,1840.4 c 68.77,559.37 107.66,730.45 622.83,2175.03 l 8.95,19.16 c 2.69,5.73 4.08,11.8 4.24,17.84 56.57,158.5 122.29,341.92 210.06,586.26 690.99,-543.33 538.18,-1781.48 446.06,-2527.81 z m -1301.25,-706.43 -4.38,3.31 c -91.84,60.04 -187.39,108.12 -292.14,146.98 -197.1,73.16 -395.12,107 -587.06,100.45 -153.66,-5.24 -282.84,-35.31 -384.34,-70.69 -47.38,75.57 -87.3,175.68 -122.79,305 624.49,-134.96 1345.26,-246.52 1383.63,-252.42 430.03,-96.35 1124.67,-209.03 1313.65,-239.15 -75.76,-252.1 -300.55,-291.26 -432.64,-291.26 -0.01,0 -0.03,0 -0.04,0 -34.82,0 -70.69,2.69 -106.62,7.98 -67.18,9.9 -139.62,20.19 -215.68,30.86 -16.93,69.96 -63.99,127.61 -138.35,165.02 -77.88,39.2 -206.34,87.15 -375.99,92.94 -11.15,0.38 -22.48,0.58 -33.93,0.58 -0.95,0 -1.9,-0.03 -2.84,-0.03 -0.17,0.15 -0.31,0.28 -0.48,0.43 z m -648.09,-550.7 14.2,-2.891 c 10.7,-2.16 13.47,-1.23 17.54,8.243 l 2.07,4.929 c 1.78,1.36 6.92,0.309 7.58,-1.781 -1.76,-6.488 -3.47,-13.871 -5.06,-21.68 -1.58,-7.82 -2.89,-15.269 -3.81,-21.929 -1.41,-1.641 -6.6,-0.801 -7.66,1.347 l 0.02,5.352 c -0.06,10.301 -2.19,12.449 -12.89,14.621 l -14.21,2.891 c -5.55,1.117 -5.81,0.949 -7.06,-5.223 l -4.98,-24.488 c -1.91,-9.469 -2.43,-16.219 -0.67,-20.219 1.92,-4.25 5.5,-6.692 20.52,-9.75 17.92,-3.633 25.03,-4.442 41.08,16.519 2.11,1.93 7.09,0.059 7.41,-2.582 -3,-10.531 -11.33,-26.199 -15.33,-31.179 -10.83,2.629 -30.55,6.859 -47.42,10.289 l -26.77,5.429 c -9.87,2.012 -20.01,3.844 -35.53,6.571 -1.39,1.57 -0.4,6.511 1.47,7.203 l 9.97,-0.524 c 9.55,-0.437 11.03,0.543 14.88,19.481 l 15.6,76.781 c 3.8,18.731 2.82,20.219 -6.07,23.949 l -4.94,2.071 c -1.6,1.609 -0.43,6.312 1.88,7.129 9.59,-2.379 19.63,-4.637 29.51,-6.637 l 43.64,-8.871 c 13.17,-2.672 24.95,-4.852 27.71,-4.981 -0.46,-3.34 -2.04,-18.441 -3.8,-32.449 -1.29,-2.101 -6.11,-1.543 -7.79,0.719 -0.8,7.672 -2.43,14.43 -4.52,17.859 -3.11,4.699 -8.79,8.422 -18.88,10.473 l -16.46,3.34 c -6.8,1.39 -6.88,0.98 -8.42,-6.641 l -7.32,-36.019 c -1.17,-5.762 -1.06,-6.223 4.51,-7.352 z m 279.17,-109.578 8.27,-1.781 c 1.36,-1.391 0.94,-6.2 -0.63,-7.332 -13.57,1.613 -24.01,2.742 -33.42,3.562 -10.04,0.879 -20.94,1.617 -35.63,2.488 -1.56,1.391 -1.14,6.211 0.65,7.313 l 9.5,0.226 c 9.51,0.223 10.93,1.993 12.64,21.454 l 8.06,92.257 c 0.44,5.02 0.54,6.063 -4.48,6.5 L 2782.65,870 c -15.27,1.332 -20.4,-6.648 -28.02,-21.371 -2.61,-1.039 -6.55,-0.277 -7.56,2.562 5.65,14.047 7.83,26.93 10.01,34.957 0.89,0.551 1.97,0.883 3.02,0.793 1.05,-0.101 2.07,-0.39 2.85,-1.101 0.74,-3.649 1.29,-4.539 17.19,-5.918 l 77.82,-6.82 c 13.81,-1.211 16.97,-1.27 19.23,2.957 0.88,0.343 1.53,0.5 2.78,0.382 1.26,-0.109 2.64,-1.07 3.01,-1.742 -2.71,-6.918 -5.66,-23.738 -6.29,-35.699 -1.21,-1.789 -6.89,-1.719 -7.8,0.051 -2.38,13.699 -4.45,23.789 -20.14,25.16 l -12.54,1.098 c -5.03,0.441 -5.71,-0.129 -6.19,-5.567 l -8.07,-92.262 c -1.7,-19.46 -0.6,-21.23 8.71,-23.308 z m 169.28,32.297 c -0.21,-12.309 -10.16,-21.821 -22.19,-21.61 -11.9,0.18 -21.53,9.86 -21.33,22.313 0.2,12.18 9.86,21.68 22.04,21.476 12.03,-0.199 21.67,-10.007 21.48,-22.179 z m 267.71,45.172 c -1.63,15.871 -9.32,45.687 -26.86,43.89 -9.83,-1 -14.24,-13.48 -12.96,-26.011 1.75,-17.129 10.48,-34.399 24.94,-35.45 2.76,-0.14 4.01,-0.011 5.89,0.18 1.11,-0.512 1.75,-2.57 1.71,-4.25 -3.18,-4.129 -11.46,-7.719 -20.02,-8.598 -19.64,-2.011 -37.16,12.45 -39.32,33.559 -2.73,26.73 15.79,47.84 41.7,50.48 31.95,3.278 52.24,-19.57 55.2,-48.601 2.58,-25.27 -6.25,-48.34 -22.33,-66.449 -15.69,-17.86 -42.22,-33.02 -59.7,-35.442 -2.61,0.789 -3.27,5.153 -1.54,6.801 39.71,14.191 57.22,51.449 53.29,89.891 z m 119.53,16.339 c -2.46,15.77 -11.72,45.161 -29.15,42.442 -9.74,-1.52 -13.5,-14.223 -11.57,-26.672 2.66,-17.031 12.29,-33.801 26.79,-34.102 2.76,0.012 4,0.211 5.88,0.504 1.13,-0.472 1.86,-2.472 1.92,-4.172 -2.95,-4.289 -11.04,-8.308 -19.54,-9.628 -19.51,-3.043 -37.77,10.48 -41.05,31.437 -4.14,26.563 13.26,48.613 39,52.633 31.75,4.949 53.2,-16.793 57.69,-45.641 3.92,-25.109 -3.68,-48.609 -18.8,-67.551 -14.73,-18.66 -40.43,-35.199 -57.76,-38.539 -2.65,0.641 -3.53,4.969 -1.89,6.719 38.91,16.262 54.43,54.391 48.48,92.57 z m 119.9,51.168 c -0.57,2.672 -3.58,2.684 -6.66,2.043 l -43.57,-9.16 c -11.92,-2.5 -13.68,-4.379 -16.59,-14 -1.26,-2.191 -6,-2.121 -7.3,-0.031 1.39,10.801 1.34,24.32 1.55,32.512 6.86,1.019 11.84,1.847 24.79,4.57 l 39.46,8.289 c 12.95,2.719 27.09,5.899 29.67,6.879 1.54,-0.109 2.49,-1.621 2.55,-2.898 -3.54,-8.68 -7.79,-21.161 -13.22,-38.192 l -37.18,-117.262 c -3.36,-1.347 -9.84,-0.136 -11.2,4.301 l 34.32,105.289 c 2.84,8.961 4.11,14.172 3.38,17.66 z m 1047.74,135.002 c -57.66,21.81 -121.54,41.7 -190.4,59.77 124.47,67.55 208.69,184.18 241.44,341.59 2.52,12.07 -0.03,24.65 -7.05,34.79 -7.02,10.13 -17.88,16.94 -30.06,18.85 -4.38,0.68 -229.34,35.87 -514.43,84.96 4.52,29.2 8.84,58.49 13.04,87.84 l 427.87,-48.77 c 12.56,-1.45 25.16,2.48 34.67,10.79 9.53,8.3 15.12,20.23 15.42,32.87 2.56,110.5 22.15,269.23 44.83,453.02 96.67,783.11 258.46,2093.82 -531.4,2647.94 -11.47,8.06 -26.07,10.3 -39.44,6.06 -13.37,-4.24 -24,-14.48 -28.75,-27.68 -10.93,-30.41 -21.46,-59.76 -31.75,-88.4 -56.49,67.48 -121.46,128.6 -180.38,185.13 160.09,70 227.59,75 195.72,381.29 -145.63,88.71 -395.34,-55.84 -395.34,-55.84 0,0 -94.59,17.02 -143.75,23.96 -324.11,45.68 -697.31,26.35 -1006.27,-47.94 -122.94,51.83 -286.44,160.55 -443.22,71.88 -15.05,-154.79 1.5,-245.11 83.83,-325.4 46.62,-45.45 134.22,-29.79 229.61,-67.95 82.05,-32.82 61.63,-98.7 91.85,-159.67 112.29,-226.4 455.7,-269.48 491.16,-537.08 0,0 -65.8,-284.13 49.89,-359.41 56.76,-20.37 98.18,-26.61 155.76,0 108.29,50.05 58.35,351.16 58.35,351.16 5,80 30.72,145.05 117.27,189.89 39.28,-23.63 115.5,-92.68 157.72,-41.96 43.25,75.98 6.23,104.15 -37.49,154.57 115,85 152.5,167.5 299.17,316.69 -34.46,-37.42 -44.55,-85.82 -42.48,-139.36 50.81,-197.13 133.82,-454.07 -117.31,-505.53 0,0 -94.38,-26.8 -255.53,-32.01 -102.36,-138.75 -91.72,-241.72 -24.1,-307.28 -26.21,-19.65 -52.68,-39.82 -79.38,-60.51 -5.48,0.96 -10.94,1.81 -16.35,2.43 -165.49,18.79 -319.63,-47.19 -431.24,-71.86 -223.84,-49.39 -401.51,-43.42 -551.06,69.91 -67.52,51.16 -92.72,136.84 -177.72,171.7 -106.83,-40.12 -92.73,-190.22 -97.8,-289.5 -11.75,-229.92 -10.93,-490.29 0,-730.79 7.78,-171.2 21.95,-348.64 42.31,-523.39 -56.55,-105.23 -104.43,-210.27 -143.34,-314.92 -10.68,2.35 -21.36,4.7 -31.96,7.05 -15.18,3.35 -31.02,-1.34 -41.89,-12.45 -10.88,-11.1 -15.26,-27.04 -11.57,-42.15 40.04,-164.17 86.25,-291.27 142.89,-387.43 -19.48,-8.51 -37.58,-17.01 -53.89,-25.22 -173.63,-87.38 -237.03,-256.66 -169.63,-452.86 l 1.49,-3.71 c 5.63,-12.23 12.16,-23.54 19.5,-33.84 -10.15,-3.28 -20.24,-6.58 -30.11,-9.95 -143.26,-48.848 -355.35,-270.071 -348.7,-421.282 4.45,-101.238 182.57,-183.507 278.7,-231.238 362.5,-180 759.19,-340.2577 1331.3,-368.76156 691.7,-34.46874 1204.14,149.85156 1640,399.99956 117.36,67.352 323.1,203.934 330,290 8.96,111.793 -156.63,279.543 -290,330.002"
         style="fill:#231f20;fill-opacity:1;fill-rule:nonzero;stroke:none"
         transform="matrix(0.13333333,0,0,-0.13333333,0,808.58667)" />
      <path
         id="path7"
         d="m 2213.14,4765.01 c -107.65,4.21 -260.85,-203.04 -287.47,-299.49 -80.51,-291.48 108.03,-693.52 359.39,-778.67 162.01,-54.88 455.96,-43.28 539.06,95.81 39.21,65.65 -36.49,211.04 -107.82,251.58 -267.64,8.75 -390.49,39.01 -395.31,227.6 -1.96,75.27 71.1,147.67 71.89,227.64 1.05,112.71 -85.15,271.84 -179.74,275.53"
         style="fill:#231f20;fill-opacity:1;fill-rule:nonzero;stroke:none"
         transform="matrix(0.13333333,0,0,-0.13333333,0,808.58667)" />
      <path
         id="path8"
         d="m 2608.48,4225.94 c 41.55,13.48 55.76,95.74 23.97,131.77 -73.58,83.36 -180.37,-85.09 -95.84,-119.82 26.11,-10.74 36.1,-23.54 71.87,-11.95"
         style="fill:#231f20;fill-opacity:1;fill-rule:nonzero;stroke:none"
         transform="matrix(0.13333333,0,0,-0.13333333,0,808.58667)" />
      <path
         id="path9"
         d="m 3842.02,3538.88 153.89,-24.41 114.53,80.28 85.05,-110.13 151.24,-23.94 -141.77,196.22 170.62,120.1 -156.51,24.8 -81.74,-57.07 -115.25,156.56 -136.2,21.59 c -0.61,0.09 -1.23,0.2 -1.85,0.33 l 164.25,-237.05 -206.26,-147.28"
         style="fill:#231f20;fill-opacity:1;fill-rule:nonzero;stroke:none"
         transform="matrix(0.13333333,0,0,-0.13333333,0,808.58667)" />
      <path
         id="path10"
         d="m 4143.72,3773.85 46.66,143.32 118.37,4.3 -110.99,42.4 -6.67,114.52 -43.66,-106.59 -118.62,-5.85 111.41,-40.83 3.5,-151.27"
         style="fill:#231f20;fill-opacity:1;fill-rule:nonzero;stroke:none"
         transform="matrix(0.13333333,0,0,-0.13333333,0,808.58667)" />
      <path
         id="path11"
         d="m 2468.46,5940.52 c 41.85,8.27 82.09,15.77 137.62,23.01 53.31,6.94 89.64,5.46 115.95,-5.8 25.76,-11.32 43.23,-32.77 47.5,-65.52 6.07,-46.64 -30.96,-70.1 -47.6,-76.79 -5.4,-1.83 -10.67,-4.78 -10.3,-7.55 0.21,-1.67 3.2,-2.97 8.35,-3.43 45.09,-3.73 86.05,-27.76 93.63,-81.55 7.21,-51 -19.43,-84.97 -52.82,-101.74 -33.39,-16.77 -74.82,-23.86 -108.69,-28.28 -19.99,-2.6 -41.38,-3.13 -57.49,-5.22 -27.2,-3.55 -54.33,-7.65 -85.84,-12.88 -4.88,2.75 -6.75,17.19 -2.53,19.43 l 15.66,5.43 c 24.34,8.26 27.17,12.57 20.66,62.55 l -25.53,196.01 c -7.31,56.08 -9.14,61.49 -32.9,61.78 l -15.28,0.27 c -5.36,2.12 -8.64,18.64 -0.39,20.28 z M 2900,5722.77 c 4.03,7.22 16.92,7.57 21.29,1.34 10.62,-36.57 47.32,-88.7 94.92,-89.47 41.43,-0.66 60.93,27.59 61.38,55.59 0.74,45.36 -41.39,72.92 -74.72,90.26 -40,20.81 -83.7,55.12 -82.81,110.56 0.45,63.29 50.44,106.18 131.64,104.87 18.48,-0.29 41.4,-2.9 63.7,-9.98 7.24,-2.35 12.26,-3.56 18.96,-4.79 4.29,-12.39 9.39,-42.72 8.8,-80.24 -2.91,-6.67 -16.92,-7.01 -21.88,-1.33 -9.05,28.72 -32.48,69.98 -72.8,70.63 -36.95,0.59 -57.5,-23.16 -57.95,-51.16 -0.42,-25.76 22.17,-49.65 49.93,-64.66 l 36.64,-20.19 c 34.43,-19.04 78.15,-52.23 77.15,-113.83 -1.1,-68.88 -58.39,-112.77 -142.94,-111.41 -51.52,0.83 -83.21,15.9 -94.86,22.81 -10.44,12.49 -17.07,52.92 -16.45,91 z m 335.51,-97.3 15.91,0.74 c 26.12,1.09 29.97,4.54 36.81,56.74 l 26.78,204.34 c 6.84,52.19 4.02,56.51 -20.93,64.31 l -15.19,4.81 c -4,3.91 -2.33,16.69 2.55,19.39 29.83,-5.04 57.53,-9.24 84.18,-12.73 26.09,-3.43 53.94,-6.51 84.06,-9.28 4.01,-3.91 2.34,-16.68 -2.55,-19.43 l -15.9,-0.74 c -26.13,-1.1 -29.98,-4.55 -36.81,-56.74 l -26.79,-204.34 c -6.84,-52.2 -4.02,-56.52 20.94,-64.31 l 15.18,-4.81 c 4.01,-3.92 1.78,-16.62 -3.1,-19.37 -29.83,5.05 -56.97,9.17 -83.07,12.59 -26.65,3.49 -54.49,6.58 -84.62,9.4 -4,3.91 -2.33,16.68 2.55,19.43 z M 2168.42,5396.24 c -11.92,-15.62 24.28,18.46 60.73,28.05 666.04,175.28 842.7,171.95 1421.69,31.99 27.49,-6.64 73.12,-26.71 73.12,-26.71 -64.59,85.94 -135.44,269.11 -135.44,269.11 0,0 316.6,139.23 396.21,173.18 0,0 -73.23,31.28 -132.88,51.05 -558.33,185 -1083.33,200 -1753.43,-23.34 0,0 -93.81,-40.61 -99.9,-43.33 116.66,-38.33 306.66,-138.53 306.66,-138.53 0,0 -69.29,-233.02 -136.76,-321.47"
         style="fill:#231f20;fill-opacity:1;fill-rule:nonzero;stroke:none"
         transform="matrix(0.13333333,0,0,-0.13333333,0,808.58667)" />
      <path
         id="path12"
         d="m 2636.42,5778.3 c -30.55,-3.97 -30.47,-4.53 -27.58,-26.74 l 8.54,-65.52 c 5.64,-43.31 14.73,-69.79 58.04,-64.15 41.1,5.35 58.63,39.82 52.77,84.79 -6.29,48.32 -38.47,78.57 -91.77,71.62"
         style="fill:#231f20;fill-opacity:1;fill-rule:nonzero;stroke:none"
         transform="matrix(0.13333333,0,0,-0.13333333,0,808.58667)" />
      <path
         id="path13"
         d="m 2600.67,5814.31 c 1.88,-14.43 2.58,-15.48 31.45,-11.72 47.76,6.22 61.55,39.08 57.21,72.39 -6.3,48.31 -39.39,68.28 -77.7,63.29 -26.1,-3.39 -26.08,-7.91 -22.89,-32.34 l 11.93,-91.62"
         style="fill:#231f20;fill-opacity:1;fill-rule:nonzero;stroke:none"
         transform="matrix(0.13333333,0,0,-0.13333333,0,808.58667)" />
      <path
         id="path14"
         d="m 3884.15,5421.88 c 96.01,15.11 193.77,26.12 271.36,84.61 -54.56,81.81 -92.35,170.76 -158.96,247.45 -92.44,-41.6 -199.12,-49.71 -282.59,-112.44 59.22,-72.15 97.65,-153.14 170.19,-219.62"
         style="fill:#231f20;fill-opacity:1;fill-rule:nonzero;stroke:none"
         transform="matrix(0.13333333,0,0,-0.13333333,0,808.58667)" />
      <path
         id="path15"
         d="m 2021.98,5399.5 c 58.57,77.57 121.25,153.4 136.44,249.37 -96.08,20.95 -185.05,58.69 -286.24,67.59 -37.6,-94.14 -108.72,-174.08 -125.19,-277.18 92.72,-10.77 176.62,-42.34 274.99,-39.78"
         style="fill:#231f20;fill-opacity:1;fill-rule:nonzero;stroke:none"
         transform="matrix(0.13333333,0,0,-0.13333333,0,808.58667)" />
      <path
         id="path16"
         d="m 4483.52,5407.91 c 146.84,-93.24 293.99,-198.56 410,-310 58.15,-55.86 102.52,-143.74 190,-160 89.12,344.79 -195.9,474.57 -420,610 -172.13,104.02 -352.56,236.97 -500,250 -17.07,1.56 -11.44,-15.32 -10,-30 24.27,-199.75 191.17,-271.86 330,-360"
         style="fill:#231f20;fill-opacity:1;fill-rule:nonzero;stroke:none"
         transform="matrix(0.13333333,0,0,-0.13333333,0,808.58667)" />
      <path
         id="path17"
         d="m 1063.52,5037.91 c 61.48,60.57 129.2,113.65 200,170 138.04,109.86 307.3,202.52 410,330 37.23,46.21 66.94,119.11 40,190 -39.3,23.85 -61.67,-2.57 -80,-10 -245.31,-99.43 -474.85,-286.84 -650,-450 -133.086,-123.98 -265.145,-224.85 -120,-400 89.96,23.04 138.07,108.96 200,170"
         style="fill:#231f20;fill-opacity:1;fill-rule:nonzero;stroke:none"
         transform="matrix(0.13333333,0,0,-0.13333333,0,808.58667)" />
      <path
         id="path18"
         d="m 5023.52,4787.91 c -43.62,127.59 -182.77,218.96 -300,320 -114.86,98.99 -245.76,204.2 -390,240 -60.15,14.92 -239.98,41.11 -270,-50 111.73,-99.06 257.91,-154.73 410,-270 158.26,-119.96 341.97,-386.67 550,-240"
         style="fill:#231f20;fill-opacity:1;fill-rule:nonzero;stroke:none"
         transform="matrix(0.13333333,0,0,-0.13333333,0,808.58667)" />
      <path
         id="path19"
         d="m 1863.52,5247.91 c -85.35,87.91 -256.93,58.22 -350,20 -230.44,-94.63 -473.49,-372.65 -600,-560 317.52,-63.79 431.19,158.45 610,300 120.31,95.23 246.89,135.61 340,240"
         style="fill:#231f20;fill-opacity:1;fill-rule:nonzero;stroke:none"
         transform="matrix(0.13333333,0,0,-0.13333333,0,808.58667)" />
      <path
         id="path20"
         d="m 5573.52,4137.91 c 36.39,-87.2 44.45,-199.35 140,-250 181.45,137.51 85.93,310.61 0,480 -105.72,208.39 -355.97,578.03 -515.81,664.59 -7.97,-31.1 -4.24,-19.37 -14.19,-44.59 -58.6,-149.72 35,-239.71 110,-350 114.37,-168.2 207.54,-326.38 280,-500"
         style="fill:#231f20;fill-opacity:1;fill-rule:nonzero;stroke:none"
         transform="matrix(0.13333333,0,0,-0.13333333,0,808.58667)" />
      <path
         id="path21"
         d="m 343.52,3897.91 c 76.738,212.56 200.714,400.42 300,600 62.773,126.18 137.98,284.47 100,450 -39.09,5.82 -82.579,-10.11 -90,-20 -156.122,-208.09 -440.645,-592.22 -460,-920 42.031,-44.64 59.414,-113.92 150,-110"
         style="fill:#231f20;fill-opacity:1;fill-rule:nonzero;stroke:none"
         transform="matrix(0.13333333,0,0,-0.13333333,0,808.58667)" />
      <path
         id="path22"
         d="m 5583.52,3727.91 c -9.12,149.57 -69.12,345.02 -150,500 -107.24,205.49 -234.16,443.03 -460,430 -36.95,-2.14 -41.18,-24.7 -60,-30 65.84,-125.13 158.26,-224.87 240,-370 125.07,-222.07 149.47,-502.38 430,-530"
         style="fill:#231f20;fill-opacity:1;fill-rule:nonzero;stroke:none"
         transform="matrix(0.13333333,0,0,-0.13333333,0,808.58667)" />
      <path
         id="path23"
         d="m 693.52,4437.91 c -48.653,-98.83 -100.977,-207.49 -150,-320 -47.012,-107.91 -119.707,-226.45 -100,-340 98.398,-4.15 201.386,71.26 270,130 84.316,285.67 258.585,481.41 390,720 -157.54,33.68 -321.25,-89.27 -410,-190"
         style="fill:#231f20;fill-opacity:1;fill-rule:nonzero;stroke:none"
         transform="matrix(0.13333333,0,0,-0.13333333,0,808.58667)" />
      <path
         id="path24"
         d="m 243.52,2667.91 c -51.797,319.16 27.824,672.45 40,960 4.23,99.81 0.937,268.57 -140,270 C 56.8398,3763.45 44.3906,3581.92 23.5195,3407.91 2.25,3230.57 -5.07422,3058.33 3.51953,2867.91 59.1055,2776.83 130.688,2701.73 243.52,2667.91"
         style="fill:#231f20;fill-opacity:1;fill-rule:nonzero;stroke:none"
         transform="matrix(0.13333333,0,0,-0.13333333,0,808.58667)" />
      <path
         id="path25"
         d="m 5773.52,3397.91 c 29.32,-248.14 -11.43,-520.94 0,-710 365.16,65.53 212.67,885 120,1170 -8.31,7.4 -11.71,10.65 -20,10 -12.73,-1.02 -21.34,-11.88 -30,-20 -114.37,-107.2 -87.35,-303.1 -70,-450"
         style="fill:#231f20;fill-opacity:1;fill-rule:nonzero;stroke:none"
         transform="matrix(0.13333333,0,0,-0.13333333,0,808.58667)" />
      <path
         id="path26"
         d="m 593.52,3497.91 c 20.488,105.01 82.726,205.94 30,280 -3.34,0 -6.661,0 -10,0 -286.563,-109.49 -328.016,-539 -300,-920 5.918,-80.49 12.148,-170.82 60,-220 194.277,64.79 166.894,304.4 180,560 5.343,104.14 22.578,210.71 40,300"
         style="fill:#231f20;fill-opacity:1;fill-rule:nonzero;stroke:none"
         transform="matrix(0.13333333,0,0,-0.13333333,0,808.58667)" />
      <path
         id="path27"
         d="m 5693.52,3067.91 c -0.68,268.5 -48.48,526.63 -270,580 -6.23,0.62 -13.48,1.4 -20,0 -14.98,-3.23 -2.45,-20.68 0,-30 77.73,-183.88 33.86,-468.79 50,-720 7.58,-117.9 69.14,-262.93 170,-300 57.56,113.6 70.44,298.01 70,470"
         style="fill:#231f20;fill-opacity:1;fill-rule:nonzero;stroke:none"
         transform="matrix(0.13333333,0,0,-0.13333333,0,808.58667)" />
      <path
         id="path28"
         d="m 733.52,1657.91 c 174.531,221.26 -1.036,437.92 -70,660 -42.461,136.73 -42.93,295.24 -130,380 -11.02,12.6 -15.184,4.48 -20,0 -201.317,-189.73 -44.891,-583.61 40,-780 47.675,-110.3 110.546,-227.16 180,-260"
         style="fill:#231f20;fill-opacity:1;fill-rule:nonzero;stroke:none"
         transform="matrix(0.13333333,0,0,-0.13333333,0,808.58667)" />
      <path
         id="path29"
         d="m 603.52,1617.91 c -63.915,163.3 -153.653,333.86 -230,570 -51.016,157.78 -153.465,534.49 -340.0005,480 -7.6172,-137.52 46.4453,-331.02 100.0005,-510 82.793,-276.72 140.39,-561.27 470,-540"
         style="fill:#231f20;fill-opacity:1;fill-rule:nonzero;stroke:none"
         transform="matrix(0.13333333,0,0,-0.13333333,0,808.58667)" />
      <path
         id="path30"
         d="m 5473.52,1947.91 c 96.4,235.11 180.74,518.96 -20,700 -5.44,2.23 -9.98,7.19 -20,0 -1.84,-1.32 -8.52,-6.35 -10,-30 -7.66,-206 -128.22,-431.66 -190,-630 -7.15,-22.95 -19.18,-75.83 -20,-100 -2.32,-68.45 34.48,-168.19 80,-230 78.09,42.6 132.5,174.13 180,290"
         style="fill:#231f20;fill-opacity:1;fill-rule:nonzero;stroke:none"
         transform="matrix(0.13333333,0,0,-0.13333333,0,808.58667)" />
      <path
         id="path31"
         d="m 5923.52,2647.91 c -239.45,-81.24 -234.94,-383.27 -320,-630 -48.92,-141.92 -135.78,-248.55 -150,-370 292.43,-41.34 340.95,252.06 410,490 24.7,85.1 41.35,178.8 60,260 20.41,88.84 68.56,191.89 10,250 -3.33,0 -6.67,0 -10,0"
         style="fill:#231f20;fill-opacity:1;fill-rule:nonzero;stroke:none"
         transform="matrix(0.13333333,0,0,-0.13333333,0,808.58667)" />
      <path
         id="path32"
         d="m 3845.94,4187.62 -40,-88.77 v 0 c 0,0 -446.6,-156.09 -565.45,-55 -160.22,136.28 -59.55,540 -59.55,540 l -631.76,566.11 74.6,12.72 587.16,-537.43 c 0,0 381.26,184.07 566.77,38.75 150,-117.5 68.23,-476.38 68.23,-476.38 v 0"
         style="fill:#231f20;fill-opacity:1;fill-rule:nonzero;stroke:none"
         transform="matrix(0.13333333,0,0,-0.13333333,0,808.58667)" />
      <path
         id="path33"
         d="m 3845.94,4187.62 -40,-88.77 v 0 c 0,0 -446.6,-156.09 -565.45,-55 -160.22,136.28 -59.55,540 -59.55,540 l -631.76,566.11 74.6,12.72 587.16,-537.43 c 0,0 381.26,184.07 566.77,38.75 150,-117.5 68.23,-476.38 68.23,-476.38 z"
         style="fill:none;stroke:#ffffff;stroke-width:20;stroke-linecap:butt;stroke-linejoin:miter;stroke-miterlimit:10;stroke-dasharray:none;stroke-opacity:1"
         transform="matrix(0.13333333,0,0,-0.13333333,0,808.58667)" />
      <path
         id="path34"
         d="m 3696.24,3936.65 154.17,131.71 157.02,438.48 -48.62,130.94 -262.57,-701.13"
         style="fill:#231f20;fill-opacity:1;fill-rule:nonzero;stroke:none"
         transform="matrix(0.13333333,0,0,-0.13333333,0,808.58667)" />
    </g>
  </g>
</svg>
